<svg xmlns="http://www.w3.org/2000/svg" width="593" height="800" viewBox="-2.9000000000000004 -2.9000000000000004 25.8 34.8">
  <polygon points="3.0000000000000013,7.999999999999999 -2.9000000000000004,9.474999999999998 -2.9000000000000004,3.950000000000001 1.0234453781512611,1.9882773109243699 3.6420602858918585,4.302402113113734 3.0964285714285715,7.9035714285714285" style="fill:#c5bfec;stroke:gray;stroke-width:0.0348"/>
  <polygon points="9.476805385556917,5.493206854345165 3.0964285714285715,7.9035714285714285 3.642060285891859,4.302402113113734 6.1568445309299475,1.267802130274477" style="fill:#9c9bc7;stroke:gray;stroke-width:0.0348"/>
  <polygon points="21.588357949609037,19.772458731537796 22.9,19.910526315789472 22.9,31.9 9.901818181818193,31.9" style="fill:#e0d49c;stroke:gray;stroke-width:0.0348"/>
  <polygon points="-2.9000000000000004,28.696093750000006 16.402627427782708,16.933555161194914 21.588357949609037,19.772458731537796 9.901818181818193,31.9 -2.9000000000000004,31.9" style="fill:#e0a7bb;stroke:gray;stroke-width:0.0348"/>
  <polygon points="10.546236743072186,5.835973315087239 12.276990779547361,12.28696563285834 8.093434343434343,13.093434343434343 2.9999999999999982,7.999999999999997 3.0964285714285626,7.903571428571433 9.476805385556919,5.493206854345165" style="fill:#f7d3f8;stroke:gray;stroke-width:0.0348"/>
  <polygon points="14.202013422818796,13.496979865771813 12.276990779547361,12.28696563285834 10.546236743072186,5.8359733150872355 19.128947368421052,-2.9000000000000004 22.9,-2.9000000000000004 22.9,0.45000000000000906" style="fill:#e7c3b6;stroke:gray;stroke-width:0.0348"/>
  <polygon points="5.183497747645266,-2.831857168858353 1.023445378151263,1.9882773109243677 -2.9000000000000004,3.9499999999999993 -2.9000000000000004,-2.9000000000000004 5.1921052631578934,-2.9000000000000004" style="fill:#9dfdce;stroke:gray;stroke-width:0.0348"/>
  <polygon points="6.1568445309299475,1.267802130274478 3.6420602858918585,4.302402113113736 1.0234453781512598,1.9882773109243703 5.183497747645266,-2.831857168858354" style="fill:#9fb2ef;stroke:gray;stroke-width:0.0348"/>
  <polygon points="21.58835794960902,19.772458731537785 16.402627427782704,16.933555161194914 14.202013422818794,13.496979865771815 22.9,0.45000000000000906 22.9,19.91052631578947" style="fill:#a9de9d;stroke:gray;stroke-width:0.0348"/>
  <polygon points="14.202013422818794,13.496979865771815 16.402627427782708,16.933555161194914 -2.9000000000000004,28.696093750000006 -2.9000000000000004,22.634905660377356 8.093434343434346,13.093434343434343 12.276990779547356,12.28696563285834" style="fill:#97d0c5;stroke:gray;stroke-width:0.0348"/>
  <polygon points="8.093434343434343,13.093434343434346 -2.9000000000000004,22.63490566037736 -2.9000000000000004,9.474999999999998 2.999999999999999,7.999999999999999" style="fill:#dfdbab;stroke:gray;stroke-width:0.0348"/>
  <polygon points="10.54623674307218,5.835973315087237 9.476805385556922,5.493206854345168 6.156844530929947,1.2678021302744709 5.183497747645266,-2.831857168858353 5.192105263157895,-2.9000000000000004 19.128947368421052,-2.9000000000000004" style="fill:#f2a39d;stroke:gray;stroke-width:0.0348"/>
  <circle cx="2.0" cy="4.0" r="0.174" style="fill:black"/>
  <circle cx="5.3" cy="4.5" r="0.174" style="fill:black"/>
  <circle cx="18.0" cy="29.0" r="0.174" style="fill:black"/>
  <circle cx="12.5" cy="23.7" r="0.174" style="fill:black"/>
  <circle cx="7.0" cy="9.0" r="0.174" style="fill:black"/>
  <circle cx="15.2" cy="6.8" r="0.174" style="fill:black"/>
  <circle cx="0.0" cy="0.0" r="0.174" style="fill:black"/>
  <circle cx="3.14" cy="2.71" r="0.174" style="fill:black"/>
  <circle cx="20.0" cy="10.0" r="0.174" style="fill:black"/>
  <circle cx="8.6" cy="17.3" r="0.174" style="fill:black"/>
  <circle cx="4.0" cy="12.0" r="0.174" style="fill:black"/>
  <circle cx="9.5" cy="1.2" r="0.174" style="fill:black"/>
</svg>
