<?xml version="1.0" encoding="UTF-8" ?>
<svg xmlns="http://www.w3.org/2000/svg" width="800" height="600">
  <polygon points="-435.51724137931,309.31034482758605 -1600.0,697.471264367816 -1600,-1200 275.22794918330305,-1200.0 126.52030288718768,-22.73113348908666 49.05725876557506,67.02309475514352" fill="#d9e79d" stroke="gray" stroke-width="1" />
  <polygon points="206.46465200692165,132.2873000464269 87.65763546798036,177.16995073891587 97.81767428902089,110.11369452004837 144.64469126559194,53.60735001200733" fill="#97be9d" stroke="gray" stroke-width="1" />
  <polygon points="87.6576354679804,177.16995073891616 206.46465200692177,132.28730004642716 226.37820142272344,138.6698479361072 258.60603520536466,258.7917738532243 180.705329153605,273.8087774294671 85.86206896551721,178.96551724137933" fill="#c8f7fa" stroke="gray" stroke-width="1" />
  <polygon points="144.64469126559206,53.60735001200743 97.81767428902074,110.1136945200488 49.0572587655752,67.02309475514343 126.5203028871877,-22.73113348908656" fill="#f9a1e3" stroke="gray" stroke-width="1" />
  <polygon points="335.42823486216065,345.3144754153535 -460.52565564424253,830.3488774426933 180.7053291536049,273.8087774294671 258.6060352053646,258.79177385322424 294.45128442490153,281.32307336264745" fill="#ad99e9" stroke="gray" stroke-width="1" />
  <polygon points="335.4282348621603,345.31447541535323 294.4512844249016,281.32307336264785 734.0344827586214,-378.05172413793184 1422.9054187192116,-1200.0 3200,-1200 3200.0,689.5462794918333 431.99011354444474,398.1768177596695" fill="#fdf3f9" stroke="gray" stroke-width="1" />
  <polygon points="-1600.0,1658.172119068671 -1600.0,697.471264367816 -435.5172413793123,309.3103448275867 85.86206896551721,178.9655172413793 180.70532915360496,273.80877742946706 -460.5256556442433,830.3488774426937" fill="#eeddc2" stroke="gray" stroke-width="1" />
  <polygon points="258.6060352053647,258.7917738532242 226.37820142272352,138.66984793610715 734.0344827586206,-378.05172413793105 294.4512844249016,281.3230733626474" fill="#a0fee6" stroke="gray" stroke-width="1" />
  <polygon points="97.81767428902099,110.11369452004901 87.65763546798053,177.16995073891601 85.86206896551724,178.9655172413793 -435.51724137931114,309.3103448275864 49.05725876557517,67.02309475514335" fill="#bbd3b1" stroke="gray" stroke-width="1" />
  <polygon points="206.46465200692228,132.2873000464274 144.644691265592,53.6073500120071 126.5203028871876,-22.73113348908695 275.2279491833028,-1200.0 1422.9054187192119,-1200.0 734.0344827586215,-378.05172413793196 226.3782014227234,138.66984793610723" fill="#98c8cb" stroke="gray" stroke-width="1" />
  <polygon points="431.9901135444439,398.17681775966946 3200.0,689.5462794918335 3200,2400 -1497.039498432603,2400.0" fill="#b8cd9f" stroke="gray" stroke-width="1" />
  <polygon points="-1497.039498432603,2400.0 -1600,2400 -1600.0,1658.1721190686708 -460.52565564424276,830.3488774426933 335.4282348621607,345.3144754153534 431.99011354444417,398.1768177596692" fill="#f2fbfa" stroke="gray" stroke-width="1" />
  <circle cx="67.24137931034483" cy="104.48275862068965" r="3" fill="black" />
  <circle cx="128.68965517241378" cy="113.79310344827586" r="3" fill="black" />
  <circle cx="365.17241379310343" cy="570.0" r="3" fill="black" />
  <circle cx="262.7586206896552" cy="471.31034482758616" r="3" fill="black" />
  <circle cx="160.3448275862069" cy="197.58620689655172" r="3" fill="black" />
  <circle cx="313.03448275862064" cy="156.62068965517238" r="3" fill="black" />
  <circle cx="30.0" cy="30.0" r="3" fill="black" />
  <circle cx="88.46896551724137" cy="80.46206896551723" r="3" fill="black" />
  <circle cx="402.41379310344826" cy="216.20689655172413" r="3" fill="black" />
  <circle cx="190.13793103448273" cy="352.13793103448273" r="3" fill="black" />
  <circle cx="104.48275862068965" cy="253.44827586206895" r="3" fill="black" />
  <circle cx="206.8965517241379" cy="52.34482758620689" r="3" fill="black" />
</svg>
